<svg xmlns="http://www.w3.org/2000/svg" width="16" height="18" viewBox="0 0 16 18" xmlns:xlink="http://www.w3.org/1999/xlink">
  <defs>
    <path id="a" d="M4,4.00013565 C4,3.44777598 4.43788135,3 5.00292933,3 L9.99707067,3 C10.5509732,3 11,3.44137661 11,4.00013565 L11,11.686305 C11,12.2386647 10.5621186,12.6864407 9.99707067,12.6864407 L5.00292933,12.6864407 C4.44902676,12.6864407 4,12.2450641 4,11.686305 L4,4.00013565 Z M13,4.00044353 C13,3.44791382 13.4378814,3 14.0029293,3 L18.9970707,3 C19.5509732,3 20,3.44871764 20,4.00044353 L20,9.53345478 C20,10.0859845 19.5621186,10.5338983 18.9970707,10.5338983 L14.0029293,10.5338983 C13.4490268,10.5338983 13,10.0851807 13,9.53345478 L13,4.00044353 Z M4,15.8385631 C4,15.2865103 4.43788135,14.8389831 5.00292933,14.8389831 L9.99707067,14.8389831 C10.5509732,14.8389831 11,15.279362 11,15.8385631 L11,19.2207589 C11,19.7728117 10.5621186,20.220339 9.99707067,20.220339 L5.00292933,20.220339 C4.44902676,20.220339 4,19.77996 4,19.2207589 L4,15.8385631 Z M13,13.6868842 C13,13.1343545 13.4378814,12.6864407 14.0029293,12.6864407 L18.9970707,12.6864407 C19.5509732,12.6864407 20,13.1351583 20,13.6868842 L20,19.2198955 C20,19.7724252 19.5621186,20.220339 18.9970707,20.220339 L14.0029293,20.220339 C13.4490268,20.220339 13,19.7716213 13,19.2198955 L13,13.6868842 Z"/>
  </defs>
  <g fill="none" fill-rule="evenodd" transform="translate(-4 -3)">
    <rect width="24" height="24"/>
    <use fill="#FFFFFF" xlink:href="#a"/>
  </g>
</svg>
