<svg xmlns="http://www.w3.org/2000/svg" width="18" height="20" viewBox="0 0 18 20" xmlns:xlink="http://www.w3.org/1999/xlink">
  <defs>
    <path id="a" d="M4,3 L14,3 C14.5522847,3 15,3.44771525 15,4 L15,7.85 C15,8.40228475 14.5522847,8.85 14,8.85 L4,8.85 C3.44771525,8.85 3,8.40228475 3,7.85 L3,4 C3,3.44771525 3.44771525,3 4,3 Z M10,9.825 L20,9.825 C20.5522847,9.825 21,10.2727153 21,10.825 L21,14.675 C21,15.2272847 20.5522847,15.675 20,15.675 L10,15.675 C9.44771525,15.675 9,15.2272847 9,14.675 L9,10.825 C9,10.2727153 9.44771525,9.825 10,9.825 Z M4,16.65 L14,16.65 C14.5522847,16.65 15,17.0977153 15,17.65 L15,21.5 C15,22.0522847 14.5522847,22.5 14,22.5 L4,22.5 C3.44771525,22.5 3,22.0522847 3,21.5 L3,17.65 C3,17.0977153 3.44771525,16.65 4,16.65 Z"/>
  </defs>
  <g fill="none" fill-rule="evenodd" transform="translate(-3 -3)">
    <rect width="24" height="26"/>
    <use fill="#FFFFFF" xlink:href="#a"/>
  </g>
</svg>
