<svg xmlns="http://www.w3.org/2000/svg" xmlns:xlink="http://www.w3.org/1999/xlink" width="24" height="24" viewBox="0 0 24 24">
    <defs>
        <path id="a" d="M4 3h10a1 1 0 0 1 1 1v3.4a1 1 0 0 1-1 1H4a1 1 0 0 1-1-1V4a1 1 0 0 1 1-1zm6 6.3h10a1 1 0 0 1 1 1v3.4a1 1 0 0 1-1 1H10a1 1 0 0 1-1-1v-3.4a1 1 0 0 1 1-1zm-6 6.3h10a1 1 0 0 1 1 1V20a1 1 0 0 1-1 1H4a1 1 0 0 1-1-1v-3.4a1 1 0 0 1 1-1z"/>
    </defs>
    <g fill="none" fill-rule="evenodd">
        <path d="M0 0h24v24H0z"/>
        <mask id="b" fill="#fff">
            <use xlink:href="#a"/>
        </mask>
        <use fill="#D8D8D8" xlink:href="#a"/>
        <g fill="#666" mask="url(#b)">
            <path d="M0 0h24v24H0z"/>
        </g>
    </g>
</svg>
