<svg xmlns="http://www.w3.org/2000/svg" width="20" height="20" viewBox="0 0 20 20">
  <g fill="none" fill-rule="evenodd" transform="translate(-2 -2)">
    <rect width="24" height="24"/>
    <path fill="#FFFFFF" d="M22,12.0000383 C22,17.5229005 17.5229005,22 12.0000383,22 C6.47717615,22 2,17.5229005 2,12.0000383 C2,6.47717615 6.47717615,2 12.0000383,2 C17.5229005,2 22,6.47717615 22,12.0000383 Z M11.2177472,2.8127153 C11.3552305,2.80114339 11.4934802,2.7926369 11.632573,2.78727244 L11.6049077,2.07464259 C11.4566954,2.08039023 11.3063373,2.08966307 11.158125,2.1021546 L11.2177472,2.8127153 Z M13.1540864,2.85156929 L13.2428298,2.14399736 C13.0959203,2.12560494 12.9459454,2.11027792 12.79735,2.09847611 L12.7408699,2.80934335 C12.8795028,2.82037881 13.0172161,2.83440303 13.1540864,2.85156929 Z M9.71692525,3.06484479 C9.8508068,3.03074217 9.98583785,2.99955168 10.1217885,2.97127333 L9.97694817,2.27305088 C9.83095827,2.30339838 9.68420206,2.3372711 9.54089441,2.37374941 L9.71692525,3.06484479 Z M14.6436429,3.16447043 L14.8474923,2.48119183 C14.704108,2.43835281 14.5588078,2.39850255 14.4157301,2.36279059 L14.242918,3.05465233 C14.3777191,3.08829514 14.5112941,3.12500335 14.6436429,3.16447043 Z M8.27971046,3.56128701 C8.40585188,3.50564992 8.53337265,3.45269506 8.66234956,3.4025757 L8.4043958,2.7378428 C8.26637598,2.79141074 8.12743651,2.8489637 7.99148585,2.90904562 L8.27971046,3.56128701 Z M16.0613157,3.72038149 L16.3761328,3.08063162 C16.2426344,3.01495534 16.1056108,2.9513482 15.9689705,2.89172609 L15.6838879,3.54534691 C15.8105657,3.60067745 15.9375501,3.65945658 16.0613157,3.72038149 Z M6.94373068,4.28878407 C7.05937306,4.21283868 7.17677803,4.13942225 7.29586898,4.06853477 L6.93108586,3.4558371 C6.80295198,3.53208904 6.6765807,3.61109983 6.55227855,3.69279285 L6.94373068,4.28878407 Z M17.368021,4.50282592 L17.7839963,3.92354115 C17.6638324,3.83740329 17.5393771,3.75218506 17.414002,3.67056867 L17.0247723,4.26816922 C17.141181,4.34380808 17.2555972,4.42205252 17.368021,4.50282592 Z M5.74492772,5.22633795 C5.84677577,5.13230667 5.95076961,5.04049782 6.05644942,4.95098802 L5.59602571,4.40649559 C5.48214594,4.50282592 5.37033532,4.6014553 5.26097702,4.70261364 L5.74492772,5.22633795 Z M18.5284297,5.489273 L19.0330719,4.98562708 C18.9270855,4.87941083 18.8184169,4.77511045 18.7099783,4.67579135 L18.22825,5.20166144 C18.3304812,5.29523291 18.4305667,5.39118006 18.5284297,5.489273 Z M4.71472199,6.3482759 C4.79994023,6.23861106 4.88761079,6.13101537 4.9773505,6.0254122 L4.43431414,5.56337915 C4.33760063,5.67695237 4.24349272,5.79274802 4.15191377,5.91053617 L4.71472199,6.3482759 Z M19.5112749,6.65175091 L20.091556,6.23723163 C20.0048817,6.11591826 19.915755,5.99652076 19.8237929,5.87934568 L19.2622875,6.31884802 C19.347659,6.42789977 19.4307314,6.5388674 19.5112749,6.65175091 Z M3.88269465,7.62386721 C3.94883074,7.50148098 4.01764907,7.38078067 4.08876645,7.26191963 L3.47706503,6.8955272 C3.40042993,7.02343116 3.32640041,7.15317444 3.25528303,7.28475687 L3.88269465,7.62386721 Z M20.2890446,7.95807292 L20.9300973,7.64586152 C20.8662603,7.51481545 20.7973653,7.38108719 20.7250984,7.24843187 L20.0988363,7.58976461 C20.1648958,7.71092472 20.2284263,7.83369414 20.2890446,7.95807292 Z M3.27229603,9.01939252 C3.3172042,8.88773342 3.36510114,8.75737705 3.41583358,8.62855349 L2.75209693,8.36761092 C2.69737947,8.50693358 2.64534423,8.64878515 2.59752392,8.78918065 L3.27229603,9.01939252 Z M20.8414305,9.37628218 L21.5252455,9.17427204 C21.4836326,9.03318684 21.437575,8.88964929 21.3883752,8.74756777 L20.7144461,8.98099831 C20.7601206,9.11265741 20.802883,9.24569596 20.8414305,9.37628218 Z M2.90191856,10.4963809 C2.92444928,10.3591274 2.95004541,10.2229468 2.9784004,10.0878392 L2.28056112,9.94092965 C2.25021362,10.0856168 2.22239508,10.2335991 2.19825502,10.3808152 L2.90191856,10.4963809 Z M21.1513429,10.8666051 L21.8589914,10.7796243 C21.8409822,10.6327148 21.8192944,10.4836595 21.7944646,10.33675 L21.0914142,10.4553811 C21.1142514,10.5914851 21.1343299,10.7285853 21.1513429,10.8666051 Z M2.20906057,12.0115336 L2.77999211,12.0000383 C2.77999211,11.8654671 2.78290424,11.7315089 2.78857524,11.5982405 L2.07625193,11.5675864 C2.06996785,11.7109707 2.06682581,11.8551213 2.06697908,12.0096177 L2.20906057,12.0115336 Z M21.923135,12.4475107 C21.9298023,12.2998348 21.9331742,12.1492468 21.9330209,11.9945972 L21.9330209,11.9713001 L21.2198546,11.9713001 L21.2199313,12.0000383 C21.2199313,12.1393609 21.2169425,12.2779172 21.2108117,12.4156305 L21.923135,12.4475107 Z M2.20308303,13.6485361 L2.9063634,13.5312843 C2.88367941,13.3951038 2.86390755,13.2578503 2.84720109,13.1196772 L2.13924599,13.2057384 C2.15740851,13.3544105 2.17863643,13.5020098 2.20308303,13.6485361 Z M21.7163735,14.073631 C21.7474873,13.9271047 21.7753825,13.7791223 21.7993693,13.6338988 L21.0957824,13.5175667 C21.0730984,13.6548201 21.047349,13.7910007 21.0188407,13.9260318 L21.7163735,14.073631 Z M2.60695004,15.2386379 L3.28087916,15.0059737 C3.23612426,14.8760772 3.19359178,14.7430386 3.15466114,14.6104599 L2.47053955,14.8117037 C2.51253559,14.9547048 2.55851665,15.0983956 2.60695004,15.2386379 Z M21.2426919,15.6461067 C21.2970262,15.5080103 21.3492913,15.366312 21.397878,15.2251501 L20.7233358,14.9934822 C20.6781211,15.1252945 20.6300709,15.2555742 20.5791852,15.3844745 L21.2426919,15.6461067 Z M3.26792783,16.7386934 L3.89449645,16.398127 C3.82859026,16.2768136 3.76521303,16.1538143 3.70467129,16.0292823 L3.06331209,16.3412638 C3.12829866,16.4746855 3.19711699,16.6083371 3.26792783,16.7386934 Z M20.5151948,17.1173475 C20.5922897,16.9892902 20.667009,16.8583974 20.7375899,16.7283477 L20.1107147,16.3883944 C20.0444254,16.5105507 19.9755304,16.6310211 19.9041065,16.7498055 L20.5151948,17.1173475 Z M4.16701089,18.109159 L4.72928266,17.6703464 C4.64406442,17.561218 4.56114524,17.4500205 4.48067837,17.3370604 L3.89986091,17.7507366 C3.98638194,17.8722033 4.0753553,17.9916774 4.16701089,18.109159 Z M19.5560298,18.4479629 C19.6527433,18.3346195 19.7471578,18.2189772 19.8389666,18.1012656 L19.2766949,17.6627596 C19.1913234,17.7722711 19.1036528,17.8797135 19.0136065,17.98524 L19.5560298,18.4479629 Z M5.27913954,19.3141695 L5.7617108,18.7891423 C5.65955621,18.6952643 5.55970066,18.5992405 5.46191427,18.5009943 L4.95642911,19.0039505 C5.06203229,19.1100135 5.17062423,19.2144672 5.27913954,19.3141695 Z M18.392479,19.6033137 C18.5055924,19.5081329 18.6186292,19.4086605 18.728294,19.3075022 L18.2451097,18.7830882 C18.1433383,18.8769661 18.0393445,18.9684685 17.9334347,19.0576717 L18.392479,19.6033137 Z M6.57388966,20.321308 L6.96365582,19.7243205 C6.84778352,19.648605 6.73260096,19.5695176 6.62102024,19.4891274 L6.2042019,20.0676458 C6.32451902,20.1543967 6.4488978,20.2396916 6.57388966,20.321308 Z M17.0557329,20.5519796 C17.1833303,20.4764175 17.3110044,20.3968702 17.4353832,20.3154071 L17.0446974,19.7188794 C16.9291317,19.7946715 16.8115735,19.8678581 16.6924825,19.9383624 L17.0557329,20.5519796 Z M8.01738853,21.102373 L8.30331407,20.449212 C8.17602319,20.3934216 8.05018834,20.3348724 7.92603946,20.2736409 L7.61045611,20.912931 C7.7436479,20.9788372 7.8806715,21.042521 8.01738853,21.102373 Z M15.5819632,21.2675983 C15.7195232,21.2144135 15.858386,21.1570904 15.9948731,21.0971618 L15.7077214,20.4443073 C15.5815033,20.4998678 15.4538293,20.5525927 15.3248524,20.6025588 L15.5819632,21.2675983 Z M9.56986247,21.6336075 L9.74382415,20.942129 C9.60909967,20.9082563 9.4756013,20.8713948 9.34340573,20.8316211 L9.13810032,21.5145932 C9.27987522,21.5571257 9.42502213,21.5972059 9.56986247,21.6336075 Z M14.0081846,21.7300145 C14.1536381,21.7002035 14.3005476,21.666484 14.4446215,21.6300057 L14.269587,20.938757 C14.1357821,20.9725531 14.0009043,21.0035137 13.8648003,21.0314855 L14.0081846,21.7300145 Z M11.1879361,21.900451 L11.2452592,21.189737 C11.1067029,21.1784717 10.968913,21.1641409 10.831966,21.146898 L10.7426095,21.8543933 C10.8899788,21.8730156 11.0397238,21.8884959 11.1879361,21.900451 Z M12.3802251,21.9261237 C12.5287439,21.9205294 12.679102,21.9114098 12.8270077,21.8993015 L12.7682286,21.1885108 C12.6308219,21.1998528 12.4923422,21.2082061 12.3531729,21.2134939 L12.3802251,21.9261237 Z M12.3885472,8.13841915 C11.1071026,8.13841915 9.89993011,8.71611778 9.09259746,9.67953096 L9.06449451,9.52097881 C9.0213364,9.27685093 8.78747963,9.11380795 8.54145333,9.1568453 C8.29592884,9.1998827 8.1319531,9.43278345 8.17523667,9.67691128 L8.32039347,10.4953697 C8.39629653,10.9224999 8.77116986,11.2237615 9.19296514,11.2237615 C9.24390176,11.2237615 9.29546565,11.2193954 9.34728048,11.2102889 L10.1704211,11.0659578 C10.4159456,11.0229204 10.5799213,10.7901444 10.5366377,10.5460166 C10.4933541,10.3017639 10.2594974,10.1389704 10.0135966,10.1818831 L9.92238737,10.1978505 C10.5452944,9.51099915 11.4410762,9.10307978 12.3885472,9.10307978 C13.5689968,9.10307978 14.6697796,9.73491821 15.2615726,10.7522216 C15.395689,10.9827522 15.6922755,11.0615917 15.9243758,10.9282382 C16.1563506,10.79476 16.2355157,10.4997358 16.1013994,10.2692052 C15.3368484,8.95488158 13.9140108,8.13841915 12.3885472,8.13841915 Z M12.4126544,16.9739157 C13.694099,16.9739157 14.9012715,16.396217 15.7086042,15.4328038 L15.7367071,15.591356 C15.7798653,15.8354839 16.013722,15.9985269 16.2597483,15.9554895 C16.5052728,15.9124521 16.6692485,15.6795514 16.6259649,15.4354235 L16.4808082,14.6169651 C16.4049051,14.1898349 16.0300317,13.8885733 15.6082365,13.8885733 C15.5572998,13.8885733 15.5057359,13.8929395 15.4539211,13.9020459 L14.6307806,14.046377 C14.3852561,14.0894144 14.2212803,14.3221904 14.2645639,14.5663183 C14.3078475,14.8105709 14.5417042,14.9733644 14.7876051,14.9304518 L14.8788142,14.9144843 C14.2559072,15.6013357 13.3601254,16.009255 12.4126544,16.009255 C11.2322048,16.009255 10.131422,15.3774166 9.53962902,14.3601132 C9.40551265,14.1295826 9.10892608,14.0507431 8.87682579,14.1840966 C8.64485096,14.3175748 8.56568593,14.612599 8.69980225,14.8431296 C9.46435325,16.1574532 10.8871908,16.9739157 12.4126544,16.9739157 Z M13.8702322,12.1790174 C13.5535357,12.1790174 13.2967921,12.4343724 13.2967921,12.749356 C13.2967921,13.0643396 13.5535357,13.3195698 13.8702322,13.3195698 C14.1869287,13.3195698 14.4436723,13.0643396 14.4436723,12.749356 C14.4436723,12.4343724 14.1869287,12.1790174 13.8702322,12.1790174 Z M10.7620604,12.1790174 C10.4453639,12.1790174 10.1886203,12.4343724 10.1886203,12.749356 C10.1886203,13.0643396 10.4453639,13.3195698 10.7620604,13.3195698 C11.0787569,13.3195698 11.3353751,13.0643396 11.3353751,12.749356 C11.3353751,12.4343724 11.0787569,12.1790174 10.7620604,12.1790174 Z"/>
  </g>
</svg>
