<svg xmlns="http://www.w3.org/2000/svg" width="16" height="19" viewBox="0 0 16 19">
    <g fill="none" fill-rule="evenodd" opacity=".6">
        <g fill="#FFF" fill-rule="nonzero">
            <path d="M4.578 8.79h6.54c2.38 0 4.342-1.962 4.342-4.343 0-2.38-1.962-4.342-4.342-4.342h-6.54C2.198.105.235 2.067.235 4.447A4.348 4.348 0 0 0 4.578 8.79zm0-7.508a3.16 3.16 0 0 1 3.165 3.165 3.16 3.16 0 0 1-3.165 3.165 3.16 3.16 0 0 1-3.165-3.165c-.027-1.726 1.412-3.165 3.165-3.165zM4.578 18.704h6.54c2.38 0 4.342-1.962 4.342-4.342 0-2.381-1.962-4.343-4.342-4.343h-6.54c-2.38 0-4.343 1.962-4.343 4.343a4.348 4.348 0 0 0 4.343 4.342zm6.54-7.508a3.16 3.16 0 0 1 3.165 3.166 3.16 3.16 0 0 1-3.165 3.165 3.16 3.16 0 0 1-3.166-3.165 3.16 3.16 0 0 1 3.166-3.166z"/>
        </g>
        <path d="M-4-3h24v24H-4z"/>
    </g>
</svg>
