<svg xmlns="http://www.w3.org/2000/svg" width="16" height="21" viewBox="0 0 16 21">
  <g fill="none" fill-rule="evenodd" transform="translate(-4 -1)">
    <g fill="#FFFFFF" fill-rule="nonzero" transform="translate(4 1.5)">
      <path d="M4.5778984 9.68876903L11.1177533 9.68876903C13.4982604 9.68876903 15.4602169 7.57717182 15.4602169 5.01510055 15.4602169 2.45302928 13.4982604.341432077 11.1177533.341432077L4.5778984.341432077C2.19739123.341432077.235434775 2.45302928.235434775 5.01510055.235434775 7.60532645 2.19739123 9.68876903 4.5778984 9.68876903zM4.5778984 1.6083904C6.3305795 1.6083904 7.74318815 3.12874038 7.74318815 5.01510055 7.74318815 6.90146072 6.3305795 8.42181071 4.5778984 8.42181071 2.8252173 8.42181071 1.41260865 6.90146072 1.41260865 5.01510055 1.38644923 3.15689501 2.8252173 1.6083904 4.5778984 1.6083904zM4.5778984 20.3593736L11.1177533 20.3593736C13.4982604 20.3593736 15.4602169 18.2477764 15.4602169 15.6857051 15.4602169 13.1236338 13.4982604 11.0120366 11.1177533 11.0120366L4.5778984 11.0120366C2.19739123 11.0120366.235434775 13.1236338.235434775 15.6857051.235434775 18.275931 2.19739123 20.3593736 4.5778984 20.3593736zM11.1177533 12.2789949C12.8704344 12.2789949 14.283043 13.7993449 14.283043 15.6857051 14.283043 17.5720653 12.8704344 19.0924152 11.1177533 19.0924152 9.36507215 19.0924152 7.9524635 17.5720653 7.9524635 15.6857051 7.9524635 13.7993449 9.36507215 12.2789949 11.1177533 12.2789949z"/>
    </g>
    <rect width="24" height="24"/>
  </g>
</svg>
